<?xml version="1.0" encoding="UTF-8"?>
<svg version="1.1" xmlns="http://www.w3.org/2000/svg" width="621" height="262">
<path d="M0 0 C19.14 0 38.28 0 58 0 C57.23492493 4.59045042 56.44029901 7.74328237 54.71875 11.875 C50.59597363 24.06407797 52.17543346 39.25472948 57.25390625 50.8671875 C63.32852297 62.81779588 71.97178268 71.46298037 84.5 76.375 C96.38690406 80.00795406 109.79249975 79.32696666 120.80078125 73.5234375 C129.92891507 68.11325805 134.75985148 62.17025991 140 53 C130.43 53 120.86 53 111 53 C111 44.42 111 35.84 111 27 C130.8 27 150.6 27 171 27 C171 48.7089639 165.87229945 66.78364205 151 83 C150.37480469 83.70511719 149.74960938 84.41023438 149.10546875 85.13671875 C136.71206312 98.38832354 119.0887097 105.70370514 101.12524414 106.45532227 C83.23072779 106.78328386 66.12212897 100.54313219 53.109375 88.08984375 C52.41328125 87.40019531 51.7171875 86.71054688 51 86 C50.113125 85.175 49.22625 84.35 48.3125 83.5 C35.31271916 69.44618287 26.67107547 51.01149082 26.9375 31.5625 C26.94652344 30.69753906 26.95554687 29.83257812 26.96484375 28.94140625 C26.97644531 28.30074219 26.98804687 27.66007812 27 27 C25.576875 27.12375 25.576875 27.12375 24.125 27.25 C18.09349251 27.20116188 12.55065178 25.11203502 7.91015625 21.26953125 C1.84822395 14.84875307 0 8.72406582 0 0 Z " fill="#2663E8" transform="translate(50,122)"/>
<path d="M0 0 C16.91699844 -0.11731455 33.83386816 -0.20522184 50.7511816 -0.25906086 C58.60794186 -0.28473471 66.46444793 -0.31967525 74.32104492 -0.37719727 C81.17674704 -0.42736688 88.03226489 -0.45936941 94.88814551 -0.47044247 C98.51123847 -0.4769052 102.13380476 -0.49186118 105.75672722 -0.52865028 C131.32294772 -0.77801454 151.3420621 1.90270559 170.375 20.37109375 C178.64960176 28.65800891 189 40.73211226 189 53 C166.53116936 54.90683145 166.53116936 54.90683145 160.99804688 51.91894531 C157.74225836 48.88835956 155.94631551 44.93296916 154 41 C146.81792757 32.54646021 135.65306365 28.59876837 125 27 C121.38622839 26.74389106 117.79121016 26.72893977 114.16943359 26.74462891 C112.62107063 26.73919823 112.62107063 26.73919823 111.04142761 26.73365784 C108.8180466 26.72680655 106.59464893 26.72425032 104.37125778 26.72560501 C100.84802764 26.7265764 97.32509743 26.71355728 93.8019104 26.69662476 C83.79114037 26.65052542 73.78040393 26.62573657 63.76953125 26.61914062 C57.6305816 26.61412208 51.49194949 26.58986244 45.35310745 26.55381393 C43.02080823 26.54403199 40.68846527 26.54167518 38.35615158 26.54698563 C35.09434823 26.55406815 31.83349129 26.53675097 28.57177734 26.51416016 C27.61572098 26.52233261 26.65966461 26.53050507 25.67463684 26.53892517 C18.21138058 26.44720109 13.14937192 24.49020105 7.3125 19.875 C2.18153719 13.49596516 -0.14123435 8.2012085 0 0 Z " fill="#2663E7" transform="translate(28,72)"/>
<path d="M0 0 C5.424375 -0.04125 10.84875 -0.0825 16.4375 -0.125 C18.13060303 -0.14320801 19.82370605 -0.16141602 21.56811523 -0.18017578 C41.64491943 -0.30980504 41.64491943 -0.30980504 48.625 6.36328125 C51.48577983 9.76858452 51.89664231 13.06978083 52.375 17.375 C51.80993234 22.83732076 49.89915432 27.21256064 45.875 31 C44 32 44 32 42 32 C42.33322266 32.62567871 42.66644531 33.25135742 43.00976562 33.89599609 C44.51077093 36.72009034 46.00545481 39.54748208 47.5 42.375 C48.02464844 43.35984375 48.54929687 44.3446875 49.08984375 45.359375 C49.58613281 46.30039063 50.08242188 47.24140625 50.59375 48.2109375 C51.28500977 49.51490479 51.28500977 49.51490479 51.99023438 50.84521484 C53 53 53 53 53 55 C46.4 55 39.8 55 33 55 C31.515 52.23625 30.03 49.4725 28.5 46.625 C28.03013672 45.75568848 27.56027344 44.88637695 27.07617188 43.99072266 C26.71072266 43.3054248 26.34527344 42.62012695 25.96875 41.9140625 C25.59169922 41.2123291 25.21464844 40.5105957 24.82617188 39.78759766 C24 38 24 38 24 36 C22.02 36 20.04 36 18 36 C18 42.27 18 48.54 18 55 C12.06 55 6.12 55 0 55 C0 36.85 0 18.7 0 0 Z M18 14 C18 16.97 18 19.94 18 23 C19.93681161 23.08107583 21.8745934 23.13922475 23.8125 23.1875 C24.89144531 23.22230469 25.97039062 23.25710937 27.08203125 23.29296875 C29.98777611 23.24372575 29.98777611 23.24372575 31.90234375 21.65234375 C33.27452555 19.96306027 33.27452555 19.96306027 32.75 17.375 C32.22254355 15.0687593 32.22254355 15.0687593 31 14 C28.81360547 13.92741054 26.62499611 13.91626217 24.4375 13.9375 C23.23996094 13.94652344 22.04242188 13.95554688 20.80859375 13.96484375 C19.41833984 13.98224609 19.41833984 13.98224609 18 14 Z " fill="#010101" transform="translate(352,122)"/>
<path d="M0 0 C18.89730661 -1.47281167 18.89730661 -1.47281167 23.66015625 1.86328125 C25.17094675 4.22413291 26.13293736 6.34159476 27 9 C27.65019022 10.34144508 28.31158763 11.67776302 29 13 C29.34546875 12.0615625 29.6909375 11.123125 30.046875 10.15625 C31.77473704 6.22816464 33.47587263 2.59541849 37 0 C43.45937524 -1.69834699 50.44387307 -0.79141818 57 0 C56.16601645 3.82827979 54.60983983 6.32241368 52.375 9.5625 C48.44360762 15.28865847 44.71025944 21.12816261 41 27 C41.47421387 27.6705542 41.94842773 28.3411084 42.43701172 29.03198242 C44.58825937 32.08015433 46.73169046 35.13374187 48.875 38.1875 C49.62136719 39.24259766 50.36773438 40.29769531 51.13671875 41.38476562 C52.20986328 42.91713867 52.20986328 42.91713867 53.3046875 44.48046875 C53.96452637 45.41785889 54.62436523 46.35524902 55.30419922 47.32104492 C56.8939038 49.83239366 58.00362315 52.20793065 59 55 C40.13009123 57.23385157 40.13009123 57.23385157 35.07470703 53.62597656 C31.77928127 49.89471428 29.7975922 45.60559571 28 41 C24.1007434 45.47692425 22.03765072 49.5322287 19 55 C12.07 55 5.14 55 -2 55 C-0.49130187 51.22825468 0.68701357 48.7501886 2.93359375 45.53125 C3.50013672 44.71269531 4.06667969 43.89414063 4.65039062 43.05078125 C5.53500977 41.78814453 5.53500977 41.78814453 6.4375 40.5 C7.60415581 38.82381465 8.76955916 37.14675673 9.93359375 35.46875 C10.44978271 34.73076172 10.96597168 33.99277344 11.49780273 33.23242188 C13.08767022 30.86971291 14.55462811 28.45327538 16 26 C15.58637207 25.40985107 15.17274414 24.81970215 14.74658203 24.21166992 C12.87236932 21.53719311 10.99867891 18.86235081 9.125 16.1875 C8.47402344 15.25873047 7.82304687 14.32996094 7.15234375 13.37304688 C6.52714844 12.48037109 5.90195312 11.58769531 5.2578125 10.66796875 C4.6817627 9.84578857 4.10571289 9.0236084 3.51220703 8.17651367 C0 3.12140781 0 3.12140781 0 0 Z " fill="#010101" transform="translate(500,122)"/>
<path d="M0 0 C6.93 0 13.86 0 21 0 C25.50114704 10.12758085 25.50114704 10.12758085 26.92285156 14.02905273 C27.40289642 15.33971962 27.40289642 15.33971962 27.89263916 16.67686462 C28.22197449 17.58658524 28.55130981 18.49630585 28.890625 19.43359375 C29.24010193 20.39274185 29.58957886 21.35188995 29.949646 22.34010315 C30.68057337 24.34880205 31.40990364 26.35808277 32.13769531 28.36791992 C33.25624652 31.45473827 34.38170762 34.53897728 35.5078125 37.62304688 C36.21916246 39.58057933 36.93011444 41.53825647 37.640625 43.49609375 C37.97805725 44.41998398 38.3154895 45.34387421 38.66314697 46.29576111 C38.97056824 47.14747391 39.2779895 47.99918671 39.59472656 48.87670898 C39.86690002 49.62677719 40.13907349 50.3768454 40.41949463 51.14964294 C41 53 41 53 41 55 C34.73 55 28.46 55 22 55 C20 51 20 51 20 48 C13.73 48 7.46 48 1 48 C0.67 50.31 0.34 52.62 0 55 C-6.27 55 -12.54 55 -19 55 C-18.29898035 50.7938821 -17.66862048 47.69291961 -16.23413086 43.82080078 C-15.87383286 42.84023712 -15.51353485 41.85967346 -15.14231873 40.84939575 C-14.75375198 39.80854828 -14.36518524 38.76770081 -13.96484375 37.6953125 C-13.56672989 36.61619598 -13.16861603 35.53707947 -12.75843811 34.42526245 C-11.4897734 30.98997527 -10.21374521 27.55747723 -8.9375 24.125 C-8.07438227 21.79184696 -7.21174648 19.45851557 -6.34960938 17.125 C-4.23865294 11.41458458 -2.12108982 5.70665879 0 0 Z M10 18 C9.32635339 20.08108685 8.66133202 22.1649671 8 24.25 C7.62875 25.41015625 7.2575 26.5703125 6.875 27.765625 C5.82590405 31.0850928 5.82590405 31.0850928 6 35 C9.3 35 12.6 35 16 35 C14.35 29.39 12.7 23.78 11 18 C10.67 18 10.34 18 10 18 Z " fill="#010101" transform="translate(305,122)"/>
<path d="M0 0 C4.96377261 3.06992906 8.0332549 6.43157048 10.4375 11.8125 C11.125 14.875 11.125 14.875 11.125 21.875 C5.515 21.875 -0.095 21.875 -5.875 21.875 C-6.865 19.565 -7.855 17.255 -8.875 14.875 C-11.31823037 12.43176963 -12.463865 12.18510318 -15.875 11.875 C-20.03601936 12.69952676 -20.03601936 12.69952676 -23.03515625 15.4609375 C-24.22910256 18.89283898 -24.16424659 22.22470775 -24.125 25.8125 C-24.13273437 26.51568359 -24.14046875 27.21886719 -24.1484375 27.94335938 C-24.13312118 32.02898718 -23.68663257 35.20141173 -21.875 38.875 C-14.70940403 39.55615094 -14.70940403 39.55615094 -8.25 37.125 C-6.62325723 34.71499603 -6.62325723 34.71499603 -5.875 30.875 C-0.265 30.875 5.345 30.875 11.125 30.875 C10.6684106 39.32190388 9.52048688 43.62714299 3.25 49.625 C-4.8829424 55.48071853 -15.26033495 54.75888357 -24.875 53.875 C-30.80063325 52.47851318 -35.06679029 49.66246364 -38.875 44.875 C-44.25151795 35.74403223 -45.59352699 26.14089648 -43.12109375 15.6875 C-40.76959119 8.90041811 -38.3520496 4.00835016 -31.8125 0.625 C-22.66054293 -3.66113728 -9.2678513 -4.38781427 0 0 Z " fill="#010102" transform="translate(270.875,124.125)"/>
<path d="M0 0 C6.27 0 12.54 0 19 0 C21.46728851 6.57943602 23.64903459 13.10131013 25.6875 19.8125 C26.00783203 20.84826172 26.32816406 21.88402344 26.65820312 22.95117188 C27.11163086 24.43907227 27.11163086 24.43907227 27.57421875 25.95703125 C27.84838623 26.85397705 28.12255371 27.75092285 28.4050293 28.67504883 C29 31 29 31 29 34 C29.66 34 30.32 34 31 34 C31.0825 33.12085938 31.165 32.24171875 31.25 31.3359375 C32.11874708 25.26388487 34.17177455 19.46125817 36 13.625 C36.36867188 12.42488281 36.73734375 11.22476563 37.1171875 9.98828125 C39.86414717 1.13585283 39.86414717 1.13585283 41 0 C42.34267413 -0.08631874 43.68974322 -0.10706473 45.03515625 -0.09765625 C45.84404297 -0.09443359 46.65292969 -0.09121094 47.48632812 -0.08789062 C48.33646484 -0.07951172 49.18660156 -0.07113281 50.0625 -0.0625 C50.91650391 -0.05798828 51.77050781 -0.05347656 52.65039062 -0.04882812 C54.76695663 -0.03700373 56.88348685 -0.01906769 59 0 C57.63155143 6.79935699 55.68739756 13.16685676 53.33984375 19.6875 C52.81494102 21.16307373 52.81494102 21.16307373 52.2794342 22.66845703 C51.54486539 24.72990987 50.80772154 26.7904468 50.06811523 28.85009766 C48.93164017 32.01632554 47.80408749 35.18562773 46.67773438 38.35546875 C45.96145599 40.36216431 45.24467719 42.36868135 44.52734375 44.375 C44.18879868 45.32592529 43.8502536 46.27685059 43.50144958 47.2565918 C43.03074791 48.56430542 43.03074791 48.56430542 42.55053711 49.8984375 C42.27455185 50.66849121 41.99856659 51.43854492 41.71421814 52.23193359 C41 54 41 54 40 55 C38.43827255 55.08685603 36.87270656 55.10702219 35.30859375 55.09765625 C34.36435547 55.09443359 33.42011719 55.09121094 32.44726562 55.08789062 C31.45404297 55.07951172 30.46082031 55.07113281 29.4375 55.0625 C28.44041016 55.05798828 27.44332031 55.05347656 26.41601562 55.04882812 C23.94395151 55.03700007 21.47200482 55.02051849 19 55 C14.70437506 45.2342533 11.15198233 35.23783356 7.64135742 25.16967773 C6.67781706 22.40976472 5.70540936 19.6530791 4.73242188 16.89648438 C4.11665547 15.13820706 3.50140188 13.37975006 2.88671875 11.62109375 C2.59617111 10.79927109 2.30562347 9.97744843 2.00627136 9.13072205 C1.74211929 8.36885086 1.47796722 7.60697968 1.20581055 6.82202148 C0.97218307 6.15428207 0.7385556 5.48654266 0.49784851 4.79856873 C0 3 0 3 0 0 Z " fill="#010101" transform="translate(407,122)"/>
<path d="M0 0 C0.79792969 0.00386719 1.59585937 0.00773437 2.41796875 0.01171875 C3.21589844 0.00785156 4.01382812 0.00398438 4.8359375 0 C10.79136108 0.01011108 10.79136108 0.01011108 11.91796875 1.13671875 C12.01150038 2.8247386 12.03541666 4.51667082 12.03149414 6.20727539 C12.03141861 7.28832047 12.03134308 8.36936554 12.03126526 9.48316956 C12.02610397 10.65919235 12.02094269 11.83521515 12.015625 13.046875 C12.01421005 14.24404648 12.0127951 15.44121796 12.01133728 16.67466736 C12.00571854 20.51620941 11.99316286 24.35769418 11.98046875 28.19921875 C11.97545616 30.79622312 11.97089284 33.3932284 11.96679688 35.99023438 C11.95574302 42.37241807 11.93846583 48.75455868 11.91796875 55.13671875 C5.64796875 55.13671875 -0.62203125 55.13671875 -7.08203125 55.13671875 C-7.10667118 47.46460202 -7.12486248 39.7925081 -7.13696289 32.12036133 C-7.14200502 29.50805256 -7.1488385 26.89574664 -7.1574707 24.28344727 C-7.16954161 20.53791607 -7.1752606 16.79242203 -7.1796875 13.046875 C-7.18484879 11.8708522 -7.19001007 10.69482941 -7.19532776 9.48316956 C-7.19544106 7.86160194 -7.19544106 7.86160194 -7.19555664 6.20727539 C-7.19777725 5.2501918 -7.19999786 4.29310822 -7.20228577 3.30702209 C-6.95125103 -1.2235481 -3.81949062 0.0064847 0 0 Z " fill="#000000" transform="translate(480.08203125,121.86328125)"/>
<path d="M0 0 C19.14 0 38.28 0 58 0 C57 6 57 6 55 8 C55 6.02 55 4.04 55 2 C37.18 1.67 19.36 1.34 1 1 C1 2.65 1 4.3 1 6 C0.67 6 0.34 6 0 6 C0 4.02 0 2.04 0 0 Z " fill="#3B65C5" transform="translate(50,122)"/>
<path d="M0 0 C0.66 0 1.32 0 2 0 C2 1.65 2 3.3 2 5 C2.66 5 3.32 5 4 5 C4 5.66 4 6.32 4 7 C5.65 7 7.3 7 9 7 C10.23921302 9.97411124 11.30058404 12.85262818 12 16 C12.99 16 13.98 16 15 16 C15 16.66 15 17.32 15 18 C8.68490918 16.76778716 5.63438187 12.986487 2 8 C0.41947812 4.90767459 0 3.46227132 0 0 Z " fill="#2E62D7" transform="translate(51,129)"/>
<path d="M0 0 C0.81597656 0.16242188 1.63195312 0.32484375 2.47265625 0.4921875 C6.50164014 1.0722184 10.37508795 1.14655126 14.4375 1.125 C15.52514648 1.13080078 15.52514648 1.13080078 16.63476562 1.13671875 C21.18953626 1.12853408 25.50633814 0.74598339 30 0 C29.67 0.99 29.34 1.98 29 3 C23.99201741 5.45005918 19.92229355 4.95838976 14.625 4.125 C13.88894531 4.02058594 13.15289062 3.91617188 12.39453125 3.80859375 C10.59454065 3.55145224 8.79697346 3.27744246 7 3 C7 4.32 7 5.64 7 7 C6.34 6.67 5.68 6.34 5 6 C5.33 5.01 5.66 4.02 6 3 C3.03 2.505 3.03 2.505 0 2 C0 1.34 0 0.68 0 0 Z " fill="#3263D3" transform="translate(135,199)"/>
<path d="M0 0 C0.66 0.33 1.32 0.66 2 1 C-1.3 4.3 -4.6 7.6 -8 11 C-8.66 9.68 -9.32 8.36 -10 7 C-8 6 -8 6 -5 5 C-5 4.01 -5 3.02 -5 2 C-2.625 0.9375 -2.625 0.9375 0 0 Z " fill="#3061CE" transform="translate(201,202)"/>
<path d="M0 0 C3.96 0 7.92 0 12 0 C13.03159626 3.09478879 12.97482862 4.52631393 12.5625 7.6875 C12.46066406 8.49574219 12.35882813 9.30398437 12.25390625 10.13671875 C12.17011719 10.75160156 12.08632812 11.36648437 12 12 C11.67 12 11.34 12 11 12 C11 8.7 11 5.4 11 2 C9.9275 2.04125 8.855 2.0825 7.75 2.125 C4 2 4 2 0 0 Z " fill="#3A62C7" transform="translate(66,147)"/>
<path d="M0 0 C4.08963819 2.28538605 7.46362104 4.95706926 11 8 C9.02 8.99 9.02 8.99 7 10 C7 8.68 7 7.36 7 6 C5.35 6 3.7 6 2 6 C2 4.68 2 3.36 2 2 C1.34 2 0.68 2 0 2 C0 1.34 0 0.68 0 0 Z " fill="#3363CF" transform="translate(185,82)"/>
<path d="M0 0 C0.99 0 1.98 0 3 0 C3.66 1.32 4.32 2.64 5 4 C3.1875 5.0625 3.1875 5.0625 1 6 C0.01 5.67 -0.98 5.34 -2 5 C-1.34 3.35 -0.68 1.7 0 0 Z " fill="#2E63D6" transform="translate(173,218)"/>
<path d="M0 0 C3.26008643 3.16952847 6.22237877 6.39937989 9 10 C6.75 9.9375 6.75 9.9375 4 9 C1.9101187 6.34257905 0 3.46449449 0 0 Z " fill="#3461CD" transform="translate(111,181)"/>
<path d="M0 0 C0.66 0 1.32 0 2 0 C2 1.65 2 3.3 2 5 C0.02 5.66 -1.96 6.32 -4 7 C-2.68 4.69 -1.36 2.38 0 0 Z " fill="#2F64D2" transform="translate(189,177)"/>
<path d="M0 0 C3.81684226 1.55500981 6.19195732 4.03595495 9 7 C8.67 7.66 8.34 8.32 8 9 C1.42857143 3.85714286 1.42857143 3.85714286 0 0 Z " fill="#3562D6" transform="translate(96,202)"/>
<path d="M0 0 C-1.75 5.75 -1.75 5.75 -4 8 C-4.33 6.02 -4.66 4.04 -5 2 C-2 0 -2 0 0 0 Z " fill="#2E61D1" transform="translate(215,182)"/>
<path d="M0 0 C0.99 0 1.98 0 3 0 C2.67 2.31 2.34 4.62 2 7 C1.34 7 0.68 7 0 7 C-0.66 5.35 -1.32 3.7 -2 2 C-1.34 1.67 -0.68 1.34 0 1 C0 0.67 0 0.34 0 0 Z " fill="#2D62D8" transform="translate(189,116)"/>
<path d="M0 0 C3 0 6 0 9 0 C9.33 0.99 9.66 1.98 10 3 C5.82412255 4.39195915 3.86525224 2.82323219 0 1 C0 0.67 0 0.34 0 0 Z " fill="#3367DB" transform="translate(163,100)"/>
<path d="M0 0 C2.31 0.33 4.62 0.66 7 1 C7 2.65 7 4.3 7 6 C1.125 2.25 1.125 2.25 0 0 Z " fill="#3062D4" transform="translate(105,211)"/>
<path d="M0 0 C0 0.99 0 1.98 0 3 C-3.83887763 4.48320272 -6.06204091 5.22419163 -10 4 C-8.71086513 3.32845067 -7.41859796 2.66291141 -6.125 2 C-5.40570313 1.62875 -4.68640625 1.2575 -3.9453125 0.875 C-2 0 -2 0 0 0 Z " fill="#3165D3" transform="translate(175,194)"/>
</svg>
